<svg width="375.92mm" height="48.824mm" version="1.1" viewBox="0 0 375.92 48.824" xmlns="http://www.w3.org/2000/svg">
 <g transform="translate(-1.0559 -1.1771)">
  <g fill="#a40000">
   <path d="m15.875 42.333c-0.80135-0.10872-1.4127 3.0981-3.29 5.2456-1.8772 2.1475-5.0202 3.2359-7.4479 1.7077-2.4277-1.5282-4.1397-5.6731-4.0797-9.5479 0.059999-3.8748 1.8922-7.4791 4.1751-8.4252 2.283-0.94611 5.0162 0.76594 6.0373-0.13511 1.0211-0.90105 0.33031-4.4152-0.19535-8.8156-0.52566-4.4004-0.88609-9.6866-0.30039-13.411 0.58569-3.7247 2.1175-5.8873 4.1602-6.9536 2.0427-1.0663 4.5957-1.0363 6.3528-0.24015 1.7571 0.79613 2.7182 2.358 3.3489 4.2203 0.63069 1.8623 0.93105 4.0248 0.28109 8.5027-0.64996 4.4779-2.2336 11.201-1.6327 14.25 0.60086 3.0486 3.3942 2.3878 5.5418 3.5594 2.1476 1.1716 3.6494 4.1752 4.0698 6.8184 0.4204 2.6432-0.24039 4.9259-1.6671 6.8181-1.4267 1.8922-3.6193 3.394-5.8451 3.8889s-4.472-0.01423-6.0941-1.9815c-1.6221-1.9673-2.6133-5.3914-3.4146-5.5002z"/>
   <path d="m58.87 42.333c-0.80135-0.10872-1.4127 3.0981-3.29 5.2456-1.8772 2.1475-5.0202 3.2359-7.4479 1.7077-2.4277-1.5282-4.1397-5.6731-4.0797-9.5479 0.06-3.8748 1.8922-7.4791 4.1751-8.4252 2.283-0.94611 5.0162 0.76594 6.0373-0.13511 1.0211-0.90105 0.33031-4.4152-0.19535-8.8156-0.52566-4.4004-0.88609-9.6866-0.30039-13.411 0.58569-3.7247 2.1175-5.8873 4.1602-6.9536 2.0427-1.0663 4.5957-1.0363 6.3528-0.24015 1.7571 0.79613 2.7182 2.358 3.3489 4.2203 0.63069 1.8623 0.93105 4.0248 0.28109 8.5027-0.64996 4.4779-2.2336 11.201-1.6327 14.25 0.60086 3.0486 3.3942 2.3878 5.5418 3.5594 2.1476 1.1716 3.6494 4.1752 4.0698 6.8184 0.4204 2.6432-0.24039 4.9259-1.6671 6.8181-1.4267 1.8922-3.6193 3.394-5.8451 3.8889s-4.472-0.01423-6.0941-1.9815c-1.6221-1.9673-2.6133-5.3914-3.4146-5.5002z"/>
   <path d="m101.86 42.333c-0.80135-0.10872-1.4128 3.0981-3.29 5.2456-1.8772 2.1475-5.0202 3.2359-7.4479 1.7077s-4.1397-5.6731-4.0797-9.5479c0.06-3.8748 1.8922-7.4791 4.1751-8.4252 2.283-0.94611 5.0162 0.76594 6.0373-0.13511 1.0211-0.90105 0.3303-4.4152-0.19536-8.8156-0.52566-4.4004-0.88608-9.6866-0.30039-13.411 0.58569-3.7247 2.1175-5.8873 4.1602-6.9536 2.0427-1.0663 4.5957-1.0363 6.3528-0.24015s2.7182 2.358 3.3489 4.2203 0.93105 4.0248 0.2811 8.5027c-0.64996 4.4779-2.2336 11.201-1.6327 14.25s3.3942 2.3878 5.5418 3.5594c2.1476 1.1716 3.6494 4.1752 4.0698 6.8184 0.4204 2.6432-0.24038 4.9259-1.6671 6.8181-1.4267 1.8922-3.6193 3.394-5.8451 3.8889-2.2258 0.49492-4.472-0.01423-6.0941-1.9815-1.6221-1.9673-2.6133-5.3914-3.4146-5.5002z"/>
   <path d="m144.86 42.333c-0.80135-0.10872-1.4127 3.0981-3.29 5.2456-1.8772 2.1475-5.0202 3.2359-7.4479 1.7077s-4.1397-5.6731-4.0797-9.5479c0.06-3.8748 1.8922-7.4791 4.1751-8.4252 2.283-0.94611 5.0162 0.76594 6.0374-0.13511 1.0211-0.90105 0.33031-4.4152-0.19535-8.8156-0.52567-4.4004-0.88609-9.6866-0.3004-13.411 0.5857-3.7247 2.1175-5.8873 4.1602-6.9536 2.0426-1.0663 4.5957-1.0363 6.3528-0.24015 1.7571 0.79613 2.7182 2.358 3.349 4.2203 0.63069 1.8623 0.93105 4.0248 0.28109 8.5027-0.64996 4.4779-2.2336 11.201-1.6327 14.25 0.60086 3.0486 3.3942 2.3878 5.5418 3.5594 2.1476 1.1716 3.6494 4.1752 4.0698 6.8184 0.4204 2.6432-0.24039 4.9259-1.6671 6.8181s-3.6193 3.394-5.8451 3.8889c-2.2258 0.49492-4.472-0.01423-6.0941-1.9815-1.6221-1.9673-2.6133-5.3914-3.4146-5.5002z"/>
   <path d="m187.85 42.333c-0.80135-0.10872-1.4127 3.0981-3.29 5.2456s-5.0202 3.2359-7.4479 1.7077-4.1397-5.6731-4.0797-9.5479c0.06-3.8748 1.8922-7.4791 4.1751-8.4252 2.283-0.94611 5.0162 0.76594 6.0374-0.13511s0.3303-4.4152-0.19536-8.8156-0.88609-9.6866-0.30039-13.411c0.58569-3.7247 2.1175-5.8873 4.1602-6.9536 2.0426-1.0663 4.5957-1.0363 6.3528-0.24014 1.7571 0.79614 2.7182 2.358 3.3489 4.2203s0.93105 4.0248 0.28109 8.5027c-0.64995 4.4779-2.2336 11.201-1.6327 14.25 0.60086 3.0486 3.3942 2.3878 5.5418 3.5594 2.1476 1.1716 3.6494 4.1752 4.0698 6.8184 0.42041 2.6432-0.24038 4.9259-1.6671 6.8181-1.4267 1.8922-3.6193 3.394-5.8451 3.8889-2.2258 0.49492-4.472-0.01423-6.0941-1.9815-1.6221-1.9673-2.6133-5.3914-3.4146-5.5002z"/>
  </g>
  <g fill="#8ae234">
   <path d="m230.85 42.333c-0.80135-0.10872-1.4127 3.0981-3.29 5.2456-1.8772 2.1475-5.0202 3.2359-7.4479 1.7077s-4.1397-5.6731-4.0797-9.5479 1.8922-7.4791 4.1751-8.4252c2.283-0.94611 5.0162 0.76594 6.0374-0.13511 1.0211-0.90105 0.33031-4.4152-0.19535-8.8156-0.52567-4.4004-0.88609-9.6866-0.3004-13.411 0.5857-3.7247 2.1175-5.8873 4.1602-6.9536 2.0426-1.0663 4.5957-1.0363 6.3528-0.24015 1.7571 0.79613 2.7182 2.358 3.349 4.2203 0.63069 1.8623 0.93105 4.0248 0.28109 8.5027-0.64996 4.4779-2.2336 11.201-1.6327 14.25 0.60086 3.0486 3.3942 2.3878 5.5418 3.5594 2.1476 1.1716 3.6494 4.1752 4.0698 6.8184 0.4204 2.6432-0.24039 4.9259-1.6671 6.8181s-3.6193 3.394-5.8451 3.8889c-2.2258 0.49492-4.472-0.01423-6.0941-1.9815-1.6221-1.9673-2.6133-5.3914-3.4146-5.5002z"/>
   <path d="m273.84 42.333c-0.80135-0.10872-1.4127 3.0981-3.29 5.2456-1.8772 2.1475-5.0202 3.2359-7.4479 1.7077s-4.1397-5.6731-4.0797-9.5479c0.06-3.8748 1.8922-7.4791 4.1751-8.4252 2.283-0.94611 5.0162 0.76594 6.0374-0.13511s0.3303-4.4152-0.19536-8.8156-0.88609-9.6866-0.30039-13.411c0.58569-3.7247 2.1175-5.8873 4.1602-6.9536 2.0426-1.0663 4.5957-1.0363 6.3528-0.24014 1.7571 0.79614 2.7182 2.358 3.3489 4.2203s0.93105 4.0248 0.2811 8.5027c-0.64996 4.4779-2.2336 11.201-1.6327 14.25s3.3942 2.3878 5.5418 3.5594c2.1476 1.1716 3.6494 4.1752 4.0698 6.8184s-0.24038 4.9259-1.6671 6.8181c-1.4267 1.8922-3.6193 3.394-5.8451 3.8889-2.2258 0.49492-4.472-0.01423-6.0941-1.9815-1.6221-1.9673-2.6133-5.3914-3.4146-5.5002z"/>
   <path d="m316.84 42.333c-0.80135-0.10872-1.4127 3.0981-3.29 5.2456-1.8772 2.1475-5.0202 3.2359-7.4479 1.7077s-4.1397-5.6731-4.0797-9.5479 1.8922-7.4791 4.1751-8.4252c2.283-0.94611 5.0162 0.76594 6.0374-0.13511 1.0211-0.90105 0.33031-4.4152-0.19535-8.8156-0.52567-4.4004-0.88609-9.6866-0.3004-13.411 0.5857-3.7247 2.1175-5.8873 4.1602-6.9536 2.0426-1.0663 4.5957-1.0363 6.3528-0.24015 1.7571 0.79613 2.7182 2.358 3.349 4.2203 0.63069 1.8623 0.93105 4.0248 0.28109 8.5027-0.64996 4.4779-2.2336 11.201-1.6327 14.25 0.60086 3.0486 3.3942 2.3878 5.5418 3.5594 2.1476 1.1716 3.6494 4.1752 4.0698 6.8184 0.4204 2.6432-0.24039 4.9259-1.6671 6.8181s-3.6193 3.394-5.8451 3.8889c-2.2258 0.49492-4.472-0.01423-6.0941-1.9815-1.6221-1.9673-2.6133-5.3914-3.4146-5.5002z"/>
   <path d="m359.83 42.333c-0.80135-0.10872-1.4127 3.0981-3.29 5.2456-1.8772 2.1475-5.0202 3.2359-7.4479 1.7077s-4.1397-5.6731-4.0797-9.5479 1.8922-7.4791 4.1751-8.4252c2.283-0.94611 5.0162 0.76594 6.0374-0.13511 1.0211-0.90105 0.33031-4.4152-0.19535-8.8156-0.52567-4.4004-0.88609-9.6866-0.3004-13.411 0.5857-3.7247 2.1175-5.8873 4.1602-6.9536 2.0426-1.0663 4.5957-1.0363 6.3528-0.24015 1.7571 0.79613 2.7182 2.358 3.349 4.2203 0.63069 1.8623 0.93105 4.0248 0.28109 8.5027-0.64996 4.4779-2.2336 11.201-1.6327 14.25 0.60086 3.0486 3.3942 2.3878 5.5418 3.5594 2.1476 1.1716 3.6494 4.1752 4.0698 6.8184 0.4204 2.6432-0.24039 4.9259-1.6671 6.8181s-3.6193 3.394-5.8451 3.8889c-2.2258 0.49492-4.472-0.01423-6.0941-1.9815-1.6221-1.9673-2.6133-5.3914-3.4146-5.5002z"/>
  </g>
 </g>
</svg>
