<svg width="38.121mm" height="26.723mm" version="1.1" viewBox="0 0 38.121 26.723" xmlns="http://www.w3.org/2000/svg">
 <g fill="#8ae234" stroke="#000" stroke-linecap="square" stroke-width=".26458">
  <rect transform="scale(-1)" x="-26.591" y="-26.591" width="5.2917" height="5.2916" ry="0"/>
  <rect transform="scale(-1)" x="-21.299" y="-26.591" width="5.2917" height="5.2916" ry="0"/>
  <rect transform="scale(-1)" x="-5.424" y="-26.591" width="5.2917" height="5.2916" ry="0"/>
  <rect transform="scale(-1)" x="-10.716" y="-26.591" width="5.2917" height="5.2916" ry="0"/>
  <rect transform="scale(-1)" x="-10.716" y="-21.299" width="5.2917" height="5.2916" ry="0"/>
  <rect transform="scale(-1)" x="-10.716" y="-16.007" width="5.2917" height="5.2916" ry="0"/>
  <rect transform="scale(-1)" x="-21.299" y="-21.299" width="5.2917" height="5.2916" ry="0"/>
  <rect transform="scale(-1)" x="-16.008" y="-16.007" width="5.2917" height="5.2916" ry="0"/>
  <rect transform="scale(-1)" x="-21.299" y="-16.007" width="5.2917" height="5.2916" ry="0"/>
  <rect transform="scale(-1)" x="-10.716" y="-10.716" width="5.2917" height="5.2916" ry="0"/>
  <rect transform="scale(-1)" x="-16.008" y="-10.716" width="5.2917" height="5.2916" ry="0"/>
  <rect transform="scale(-1)" x="-21.299" y="-10.716" width="5.2917" height="5.2916" ry="0"/>
  <rect transform="scale(-1)" x="-26.591" y="-10.716" width="5.2917" height="5.2916" ry="0"/>
  <rect transform="scale(-1)" x="-31.883" y="-16.007" width="5.2917" height="5.2916" ry="0"/>
  <rect transform="scale(-1)" x="-37.174" y="-10.716" width="5.2917" height="5.2916" ry="0"/>
  <rect transform="scale(-1)" x="-31.883" y="-5.4239" width="5.2917" height="5.2916" ry="0"/>
 </g>
</svg>
