<svg width="38.121mm" height="26.723mm" version="1.1" viewBox="0 0 38.121 26.723" xmlns="http://www.w3.org/2000/svg">
 <g fill="#8ae234" stroke="#000" stroke-linecap="square" stroke-width=".26458">
  <rect transform="scale(-1)" x="-26.591" y="-26.591" width="5.2917" height="5.2916" ry="0"/>
  <rect transform="scale(-1)" x="-21.299" y="-26.591" width="5.2917" height="5.2916" ry="0"/>
  <rect transform="scale(-1)" x="-5.424" y="-26.591" width="5.2917" height="5.2916" ry="0"/>
  <rect transform="scale(-1)" x="-10.716" y="-26.591" width="5.2917" height="5.2916" ry="0"/>
  <rect transform="rotate(182.15)" x="-11.497" y="-20.544" width="5.2917" height="5.2916" ry="0"/>
  <rect transform="rotate(182.15)" x="-11.497" y="-15.252" width="5.2917" height="5.2916" ry="0"/>
  <rect transform="rotate(182.15)" x="-22.081" y="-20.544" width="5.2917" height="5.2916" ry="0"/>
  <rect transform="rotate(182.15)" x="-16.789" y="-15.252" width="5.2917" height="5.2916" ry="0"/>
  <rect transform="rotate(182.15)" x="-22.081" y="-15.252" width="5.2917" height="5.2916" ry="0"/>
  <rect transform="rotate(182.15)" x="-11.497" y="-9.9608" width="5.2917" height="5.2916" ry="0"/>
  <rect transform="rotate(182.15)" x="-16.789" y="-9.9608" width="5.2917" height="5.2916" ry="0"/>
  <rect transform="rotate(182.15)" x="-22.081" y="-9.9608" width="5.2917" height="5.2916" ry="0"/>
  <rect transform="rotate(182.15)" x="-27.372" y="-9.9608" width="5.2917" height="5.2916" ry="0"/>
  <rect transform="rotate(182.15)" x="-32.664" y="-15.252" width="5.2917" height="5.2916" ry="0"/>
  <rect transform="rotate(182.15)" x="-37.956" y="-9.9608" width="5.2917" height="5.2916" ry="0"/>
  <rect transform="rotate(182.15)" x="-32.664" y="-4.6692" width="5.2917" height="5.2916" ry="0"/>
 </g>
</svg>
