<svg width="32.014mm" height="47.917mm" version="1.1" viewBox="0 0 32.014 47.917" xmlns="http://www.w3.org/2000/svg">
 <g fill="#8ae234" stroke="#000" stroke-linecap="square" stroke-width=".26458">
  <rect x="16.007" y="10.716" width="5.2917" height="5.2916" ry="0"/>
  <rect x="21.299" y="16.008" width="5.2917" height="5.2916" ry="0"/>
  <rect x="10.716" y="5.4239" width="5.2917" height="5.2916" ry="0"/>
  <rect x="10.716" y="16.008" width="5.2917" height="5.2916" ry="0"/>
  <rect x="16.007" y="16.008" width="5.2917" height="5.2916" ry="0"/>
  <rect transform="scale(-1)" x="-21.299" y="-5.4239" width="5.2917" height="5.2916" ry="0"/>
  <rect transform="scale(-1)" x="-31.882" y="-21.299" width="5.2917" height="5.2916" ry="0"/>
  <rect transform="scale(-1)" x="-26.591" y="-26.59" width="5.2917" height="5.2916" ry="0"/>
  <rect x="16.007" y="21.299" width="5.2917" height="5.2916" ry="0"/>
  <rect x="10.716" y="21.299" width="5.2917" height="5.2916" ry="0"/>
  <rect x="16.007" y="26.591" width="5.2917" height="5.2916" ry="0"/>
  <rect x="10.716" y="26.591" width="5.2917" height="5.2916" ry="0"/>
  <rect transform="scale(-1)" x="-26.591" y="-31.883" width="5.2917" height="5.2916" ry="0"/>
 </g>
 <g transform="rotate(17.579 11.245 45.079)" fill="#8ae234" stroke="#000" stroke-linecap="square" stroke-width=".26458">
  <rect transform="scale(-1)" x="-10.716" y="-37.307" width="5.2917" height="5.2916" ry="0"/>
  <rect transform="scale(-1)" x="-10.716" y="-42.599" width="5.2917" height="5.2916" ry="0"/>
 </g>
 <g fill="#8ae234" stroke="#000" stroke-linecap="square" stroke-width=".26458">
  <rect transform="rotate(193.74)" x="-21.236" y="-43.972" width="5.2917" height="5.2916" ry="0"/>
  <rect transform="scale(-1)" x="-16.009" y="-47.757" width="5.2917" height="5.2916" ry="0"/>
  <rect transform="scale(-1)" x="-26.591" y="-10.716" width="5.2917" height="5.2916" ry="0"/>
 </g>
</svg>
