<svg width="111.39mm" height="69.056mm" version="1.1" viewBox="0 0 111.39 69.056" xmlns="http://www.w3.org/2000/svg">
 <g transform="translate(-31.618 -36.909)" fill="#8ae234" stroke="#000" stroke-linecap="square" stroke-width=".26458">
  <rect x="47.625" y="52.917" width="5.2917" height="5.2917" ry="0"/>
  <rect x="47.625" y="58.208" width="5.2917" height="5.2917" ry="0"/>
  <rect x="58.208" y="52.917" width="5.2917" height="5.2917" ry="0"/>
  <rect x="58.208" y="58.208" width="5.2917" height="5.2917" ry="0"/>
  <rect x="74.083" y="52.917" width="5.2917" height="5.2917" ry="0"/>
  <rect x="74.083" y="58.208" width="5.2917" height="5.2917" ry="0"/>
  <rect x="89.958" y="47.625" width="5.2917" height="5.2917" ry="0"/>
  <rect x="89.958" y="52.917" width="5.2917" height="5.2917" ry="0"/>
  <rect x="89.958" y="58.208" width="5.2917" height="5.2917" ry="0"/>
  <rect x="89.958" y="63.5" width="5.2917" height="5.2917" ry="0"/>
  <rect x="127" y="89.958" width="5.2917" height="5.2917" ry="0"/>
  <rect x="132.29" y="89.958" width="5.2917" height="5.2917" ry="0"/>
  <rect x="137.58" y="89.958" width="5.2917" height="5.2917" ry="0"/>
  <rect x="127" y="95.25" width="5.2917" height="5.2917" ry="0"/>
  <rect x="127" y="100.54" width="5.2917" height="5.2917" ry="0"/>
  <rect x="100.54" y="47.625" width="5.2917" height="5.2917" ry="0"/>
  <rect x="100.54" y="52.917" width="5.2917" height="5.2917" ry="0"/>
  <rect x="100.54" y="58.208" width="5.2917" height="5.2917" ry="0"/>
  <rect x="100.54" y="63.5" width="5.2917" height="5.2917" ry="0"/>
  <rect x="111.12" y="47.625" width="5.2917" height="5.2917" ry="0"/>
  <rect x="111.12" y="52.917" width="5.2917" height="5.2917" ry="0"/>
  <rect x="111.12" y="58.208" width="5.2917" height="5.2917" ry="0"/>
  <rect x="111.12" y="63.5" width="5.2917" height="5.2917" ry="0"/>
  <rect x="105.83" y="52.917" width="5.2917" height="5.2917" ry="0"/>
  <rect x="95.25" y="52.917" width="5.2917" height="5.2917" ry="0"/>
  <rect x="31.75" y="42.333" width="5.2917" height="5.2917" ry="0"/>
  <rect x="31.75" y="47.625" width="5.2917" height="5.2917" ry="0"/>
  <rect x="31.75" y="52.917" width="5.2917" height="5.2917" ry="0"/>
  <rect x="31.75" y="58.208" width="5.2917" height="5.2917" ry="0"/>
  <rect x="42.333" y="79.375" width="5.2917" height="5.2917" ry="0"/>
  <rect x="42.333" y="84.667" width="5.2917" height="5.2917" ry="0"/>
  <rect x="42.333" y="89.958" width="5.2917" height="5.2917" ry="0"/>
  <rect x="42.333" y="95.25" width="5.2917" height="5.2917" ry="0"/>
  <rect x="58.208" y="79.375" width="5.2917" height="5.2917" ry="0"/>
  <rect x="58.208" y="84.667" width="5.2917" height="5.2917" ry="0"/>
  <rect x="58.208" y="89.958" width="5.2917" height="5.2917" ry="0"/>
  <rect x="58.208" y="95.25" width="5.2917" height="5.2917" ry="0"/>
  <rect transform="scale(-1)" x="-47.625" y="-42.333" width="5.2917" height="5.2917" ry="0"/>
  <rect transform="scale(-1)" x="-42.333" y="-42.333" width="5.2917" height="5.2917" ry="0"/>
  <rect transform="scale(-1)" x="-74.083" y="-52.917" width="5.2917" height="5.2917" ry="0"/>
  <rect transform="scale(-1)" x="-68.792" y="-52.917" width="5.2917" height="5.2917" ry="0"/>
  <rect transform="scale(-1)" x="-74.083" y="-68.792" width="5.2917" height="5.2917" ry="0"/>
  <rect transform="scale(-1)" x="-68.792" y="-68.792" width="5.2917" height="5.2917" ry="0"/>
  <rect transform="scale(-1)" x="-47.625" y="-68.792" width="5.2917" height="5.2917" ry="0"/>
  <rect transform="scale(-1)" x="-84.667" y="-68.792" width="5.2917" height="5.2917" ry="0"/>
  <rect transform="scale(-1)" x="-42.333" y="-68.792" width="5.2917" height="5.2917" ry="0"/>
  <rect x="121.71" y="52.917" width="5.2917" height="5.2917" ry="0"/>
  <rect x="121.71" y="58.208" width="5.2917" height="5.2917" ry="0"/>
  <rect x="137.58" y="47.625" width="5.2917" height="5.2917" ry="0"/>
  <rect x="137.58" y="52.917" width="5.2917" height="5.2917" ry="0"/>
  <rect transform="scale(-1)" x="-137.58" y="-47.625" width="5.2917" height="5.2917" ry="0"/>
  <rect transform="scale(-1)" x="-132.29" y="-47.625" width="5.2917" height="5.2917" ry="0"/>
  <rect transform="scale(-1)" x="-137.58" y="-58.208" width="5.2917" height="5.2917" ry="0"/>
  <rect transform="scale(-1)" x="-132.29" y="-58.208" width="5.2917" height="5.2917" ry="0"/>
  <rect transform="scale(-1)" x="-137.58" y="-68.792" width="5.2917" height="5.2917" ry="0"/>
  <rect transform="scale(-1)" x="-132.29" y="-68.792" width="5.2917" height="5.2917" ry="0"/>
  <rect transform="scale(-1)" x="-127" y="-52.917" width="5.2917" height="5.2917" ry="0"/>
  <rect transform="scale(-1)" x="-142.88" y="-68.792" width="5.2917" height="5.2917" ry="0"/>
  <rect x="100.54" y="89.958" width="5.2917" height="5.2917" ry="0"/>
  <rect x="100.54" y="95.25" width="5.2917" height="5.2917" ry="0"/>
  <rect x="116.42" y="84.667" width="5.2917" height="5.2917" ry="0"/>
  <rect x="116.42" y="89.958" width="5.2917" height="5.2917" ry="0"/>
  <rect transform="scale(-1)" x="-116.42" y="-84.667" width="5.2917" height="5.2917" ry="0"/>
  <rect transform="scale(-1)" x="-111.12" y="-84.667" width="5.2917" height="5.2917" ry="0"/>
  <rect transform="scale(-1)" x="-116.42" y="-95.25" width="5.2917" height="5.2917" ry="0"/>
  <rect transform="scale(-1)" x="-111.13" y="-95.25" width="5.2917" height="5.2917" ry="0"/>
  <rect transform="scale(-1)" x="-116.42" y="-105.83" width="5.2917" height="5.2917" ry="0"/>
  <rect transform="scale(-1)" x="-111.12" y="-105.83" width="5.2917" height="5.2917" ry="0"/>
  <rect transform="scale(-1)" x="-105.83" y="-89.958" width="5.2917" height="5.2917" ry="0"/>
  <rect transform="scale(-1)" x="-121.71" y="-105.83" width="5.2917" height="5.2917" ry="0"/>
  <rect transform="scale(-1)" x="-47.625" y="-52.917" width="5.2917" height="5.2917" ry="0"/>
  <rect transform="scale(-1)" x="-52.917" y="-47.625" width="5.2917" height="5.2917" ry="0"/>
  <rect transform="scale(-1)" x="-74.083" y="-95.25" width="5.2917" height="5.2917" ry="0"/>
  <rect transform="scale(-1)" x="-79.375" y="-100.54" width="5.2917" height="5.2917" ry="0"/>
  <rect transform="scale(-1)" x="-84.667" y="-105.83" width="5.2917" height="5.2917" ry="0"/>
  <rect transform="scale(-1)" x="-89.958" y="-100.54" width="5.2917" height="5.2917" ry="0"/>
  <rect transform="scale(-1)" x="-95.25" y="-95.25" width="5.2917" height="5.2917" ry="0"/>
  <rect x="52.917" y="74.083" width="5.2917" height="5.2917" ry="0"/>
  <rect x="47.625" y="74.083" width="5.2917" height="5.2917" ry="0"/>
  <rect x="47.625" y="100.54" width="5.2917" height="5.2917" ry="0"/>
  <rect x="52.917" y="100.54" width="5.2917" height="5.2917" ry="0"/>
 </g>
</svg>
