<svg width="105.96mm" height="68.924mm" version="1.1" viewBox="0 0 105.96 68.924" xmlns="http://www.w3.org/2000/svg">
 <g fill="#8ae234" stroke="#000" stroke-linecap="square" stroke-width=".26458">
  <rect x="16.007" y="16.008" width="5.2917" height="5.2917" ry="0"/>
  <rect x="16.007" y="21.299" width="5.2917" height="5.2917" ry="0"/>
  <rect x="26.59" y="16.008" width="5.2917" height="5.2917" ry="0"/>
  <rect x="26.59" y="21.299" width="5.2917" height="5.2917" ry="0"/>
  <rect x="42.465" y="16.008" width="5.2917" height="5.2917" ry="0"/>
  <rect x="42.465" y="21.299" width="5.2917" height="5.2917" ry="0"/>
  <rect x="58.34" y="10.716" width="5.2917" height="5.2917" ry="0"/>
  <rect x="58.34" y="16.008" width="5.2917" height="5.2917" ry="0"/>
  <rect x="58.34" y="21.299" width="5.2917" height="5.2917" ry="0"/>
  <rect x="58.34" y="26.591" width="5.2917" height="5.2917" ry="0"/>
  <rect x="89.959" y="52.918" width="5.2917" height="5.2917" ry="0"/>
  <rect x="95.25" y="52.917" width="5.2917" height="5.2917" ry="0"/>
  <rect x="100.54" y="52.917" width="5.2917" height="5.2917" ry="0"/>
  <rect x="89.959" y="58.21" width="5.2917" height="5.2917" ry="0"/>
  <rect x="89.959" y="63.5" width="5.2917" height="5.2917" ry="0"/>
  <rect x="68.922" y="10.716" width="5.2917" height="5.2917" ry="0"/>
  <rect x="68.922" y="16.008" width="5.2917" height="5.2917" ry="0"/>
  <rect x="68.922" y="21.299" width="5.2917" height="5.2917" ry="0"/>
  <rect x="68.922" y="26.591" width="5.2917" height="5.2917" ry="0"/>
  <rect x="79.502" y="10.716" width="5.2917" height="5.2917" ry="0"/>
  <rect x="79.502" y="16.008" width="5.2917" height="5.2917" ry="0"/>
  <rect x="79.502" y="21.299" width="5.2917" height="5.2917" ry="0"/>
  <rect x="79.502" y="26.591" width="5.2917" height="5.2917" ry="0"/>
  <rect x="74.212" y="16.008" width="5.2917" height="5.2917" ry="0"/>
  <rect x="63.632" y="16.008" width="5.2917" height="5.2917" ry="0"/>
  <rect x=".13229" y="5.424" width="5.2917" height="5.2917" ry="0"/>
  <rect x=".13229" y="10.716" width="5.2917" height="5.2917" ry="0"/>
  <rect x=".13229" y="16.008" width="5.2917" height="5.2917" ry="0"/>
  <rect x=".13229" y="21.299" width="5.2917" height="5.2917" ry="0"/>
  <rect x="10.583" y="42.335" width="5.2917" height="5.2917" ry="0"/>
  <rect x="10.583" y="47.627" width="5.2917" height="5.2917" ry="0"/>
  <rect x="10.583" y="52.918" width="5.2917" height="5.2917" ry="0"/>
  <rect x="10.583" y="58.21" width="5.2917" height="5.2917" ry="0"/>
  <rect x="26.458" y="42.335" width="5.2917" height="5.2917" ry="0"/>
  <rect x="26.458" y="47.627" width="5.2917" height="5.2917" ry="0"/>
  <rect x="26.458" y="52.918" width="5.2917" height="5.2917" ry="0"/>
  <rect x="26.458" y="58.21" width="5.2917" height="5.2917" ry="0"/>
  <rect transform="scale(-1)" x="-16.007" y="-5.424" width="5.2917" height="5.2917" ry="0"/>
  <rect transform="scale(-1)" x="-10.715" y="-5.424" width="5.2917" height="5.2917" ry="0"/>
  <rect transform="scale(-1)" x="-42.465" y="-16.008" width="5.2917" height="5.2917" ry="0"/>
  <rect transform="scale(-1)" x="-37.174" y="-16.008" width="5.2917" height="5.2917" ry="0"/>
  <rect transform="scale(-1)" x="-42.465" y="-31.883" width="5.2917" height="5.2917" ry="0"/>
  <rect transform="scale(-1)" x="-37.174" y="-31.883" width="5.2917" height="5.2917" ry="0"/>
  <rect transform="scale(-1)" x="-16.007" y="-31.883" width="5.2917" height="5.2917" ry="0"/>
  <rect transform="scale(-1)" x="-53.049" y="-31.883" width="5.2917" height="5.2917" ry="0"/>
  <rect transform="scale(-1)" x="-10.715" y="-31.883" width="5.2917" height="5.2917" ry="0"/>
  <rect transform="scale(-1)" x="-16.007" y="-21.3" width="5.2917" height="5.2917" ry="0"/>
  <rect transform="scale(-1)" x="-21.299" y="-10.716" width="5.2917" height="5.2917" ry="0"/>
  <rect transform="scale(-1)" x="-42.334" y="-58.208" width="5.2917" height="5.2917" ry="0"/>
  <rect transform="scale(-1)" x="-47.625" y="-63.5" width="5.2917" height="5.2917" ry="0"/>
  <rect transform="scale(-1)" x="-52.917" y="-68.792" width="5.2917" height="5.2917" ry="0"/>
  <rect transform="scale(-1)" x="-58.209" y="-63.5" width="5.2917" height="5.2917" ry="0"/>
  <rect transform="scale(-1)" x="-63.5" y="-58.208" width="5.2917" height="5.2917" ry="0"/>
  <rect x="21.167" y="37.043" width="5.2917" height="5.2917" ry="0"/>
  <rect x="15.875" y="37.043" width="5.2917" height="5.2917" ry="0"/>
  <rect x="15.875" y="63.5" width="5.2917" height="5.2917" ry="0"/>
  <rect x="21.167" y="63.5" width="5.2917" height="5.2917" ry="0"/>
  <rect x="89.959" y="15.875" width="5.2917" height="5.2917" ry="0"/>
  <rect x="89.959" y="21.167" width="5.2917" height="5.2917" ry="0"/>
  <rect x="100.54" y="15.875" width="5.2917" height="5.2917" ry="0"/>
  <rect transform="scale(-1)" x="-100.54" y="-15.875" width="5.2917" height="5.2917" ry="0"/>
  <rect transform="scale(-1)" x="-105.83" y="-31.75" width="5.2917" height="5.2917" ry="0"/>
  <rect transform="scale(-1)" x="-100.54" y="-31.75" width="5.2917" height="5.2917" ry="0"/>
  <rect transform="scale(-1)" x="-100.54" y="-26.458" width="5.2917" height="5.2917" ry="0"/>
  <rect x="68.792" y="52.917" width="5.2917" height="5.2917" ry="0"/>
  <rect x="68.792" y="58.208" width="5.2917" height="5.2917" ry="0"/>
  <rect x="79.375" y="52.917" width="5.2917" height="5.2917" ry="0"/>
  <rect transform="scale(-1)" x="-79.375" y="-52.917" width="5.2917" height="5.2917" ry="0"/>
  <rect transform="scale(-1)" x="-84.667" y="-68.792" width="5.2917" height="5.2917" ry="0"/>
  <rect transform="scale(-1)" x="-79.375" y="-68.792" width="5.2917" height="5.2917" ry="0"/>
  <rect transform="scale(-1)" x="-79.375" y="-63.5" width="5.2917" height="5.2917" ry="0"/>
 </g>
</svg>
