<svg width="153.68mm" height="32.015mm" version="1.1" viewBox="0 0 153.68 32.015" xmlns="http://www.w3.org/2000/svg">
 <g fill="#8ae234" stroke="#000" stroke-linecap="square">
  <g stroke-width=".2624">
   <rect x="116.6" y="16.139" width="5.2482" height="5.2482" ry="0"/>
   <rect x="121.84" y="16.139" width="5.2482" height="5.2482" ry="0"/>
   <rect x="127.09" y="16.139" width="5.2482" height="5.2482" ry="0"/>
   <rect x="116.6" y="21.387" width="5.2482" height="5.2482" ry="0"/>
   <rect x="116.6" y="26.634" width="5.2482" height="5.2482" ry="0"/>
   <rect x="84.842" y="16.138" width="5.2482" height="5.2482" ry="0"/>
   <rect x="84.842" y="21.386" width="5.2482" height="5.2482" ry="0"/>
   <rect x="100.59" y="16.138" width="5.2482" height="5.2482" ry="0"/>
   <rect x="100.59" y="21.386" width="5.2482" height="5.2482" ry="0"/>
   <rect transform="scale(-1)" x="-100.59" y="-16.138" width="5.2482" height="5.2482" ry="0"/>
   <rect transform="scale(-1)" x="-95.336" y="-16.138" width="5.2482" height="5.2482" ry="0"/>
   <rect transform="scale(-1)" x="-100.59" y="-31.883" width="5.2482" height="5.2482" ry="0"/>
   <rect transform="scale(-1)" x="-95.336" y="-31.883" width="5.2482" height="5.2482" ry="0"/>
   <rect transform="scale(-1)" x="-111.09" y="-31.883" width="5.2482" height="5.2482" ry="0"/>
   <rect transform="scale(-1)" x="-79.507" y="-21.256" width="5.2482" height="5.2482" ry="0"/>
   <rect transform="scale(-1)" x="-68.924" y="-21.256" width="5.2482" height="5.2482" ry="0"/>
   <rect transform="scale(-1)" x="-74.216" y="-16.007" width="5.2482" height="5.2482" ry="0"/>
   <rect transform="scale(-1)" x="-74.216" y="-26.547" width="5.2482" height="5.2482" ry="0"/>
   <rect transform="scale(-1)" x="-74.216" y="-21.299" width="5.2482" height="5.2482" ry="0"/>
   <rect transform="scale(-1)" x="-74.216" y="-31.882" width="5.2482" height="5.2482" ry="0"/>
   <rect transform="scale(-1)" x="-153.55" y="-21.343" width="5.2482" height="5.2482" ry="0"/>
   <rect transform="scale(-1)" x="-143.05" y="-21.343" width="5.2482" height="5.2482" ry="0"/>
   <rect transform="scale(-1)" x="-148.3" y="-16.094" width="5.2482" height="5.2482" ry="0"/>
   <rect transform="scale(-1)" x="-148.3" y="-26.591" width="5.2482" height="5.2482" ry="0"/>
   <rect transform="scale(-1)" x="-148.3" y="-21.343" width="5.2482" height="5.2482" ry="0"/>
   <rect transform="scale(-1)" x="-148.3" y="-31.839" width="5.2482" height="5.2482" ry="0"/>
  </g>
  <g stroke-width=".26458">
   <rect x="53.049" y="10.716" width="5.2917" height="5.2917" ry="0"/>
   <rect x="47.757" y="16.007" width="5.2917" height="5.2917" ry="0"/>
   <rect x="53.049" y="21.299" width="5.2917" height="5.2917" ry="0"/>
   <rect x="47.757" y="26.591" width="5.2917" height="5.2917" ry="0"/>
   <rect x="26.591" y="16.007" width="5.2917" height="5.2917" ry="0"/>
   <rect x="26.591" y="21.299" width="5.2917" height="5.2917" ry="0"/>
   <rect x="37.174" y="16.007" width="5.2917" height="5.2917" ry="0"/>
   <rect transform="scale(-1)" x="-37.174" y="-16.007" width="5.2917" height="5.2917" ry="0"/>
   <rect transform="scale(-1)" x="-42.466" y="-31.882" width="5.2917" height="5.2917" ry="0"/>
   <rect transform="scale(-1)" x="-37.174" y="-31.882" width="5.2917" height="5.2917" ry="0"/>
   <rect transform="scale(-1)" x="-37.174" y="-26.591" width="5.2917" height="5.2917" ry="0"/>
   <rect transform="scale(-1)" x="-10.716" y="-5.424" width="5.2917" height="5.2917" ry="0"/>
   <rect transform="scale(-1)" x="-16.007" y="-5.424" width="5.2917" height="5.2917" ry="0"/>
   <rect transform="scale(-1)" x="-5.424" y="-10.716" width="5.2917" height="5.2917" ry="0"/>
   <rect transform="scale(-1)" x="-5.424" y="-16.007" width="5.2917" height="5.2917" ry="0"/>
   <rect transform="scale(-1)" x="-5.424" y="-21.299" width="5.2917" height="5.2917" ry="0"/>
   <rect transform="scale(-1)" x="-5.424" y="-26.591" width="5.2917" height="5.2917" ry="0"/>
   <rect transform="scale(-1)" x="-5.424" y="-31.882" width="5.2917" height="5.2917" ry="0"/>
   <rect transform="scale(-1)" x="-10.716" y="-21.299" width="5.2917" height="5.2917" ry="0"/>
   <rect transform="scale(-1)" x="-16.007" y="-21.299" width="5.2917" height="5.2917" ry="0"/>
   <rect transform="scale(-1)" x="-21.299" y="-16.007" width="5.2917" height="5.2917" ry="0"/>
   <rect transform="scale(-1)" x="-21.299" y="-10.716" width="5.2917" height="5.2917" ry="0"/>
   <rect transform="scale(-1)" x="-16.007" y="-26.591" width="5.2917" height="5.2917" ry="0"/>
   <rect transform="scale(-1)" x="-21.299" y="-31.882" width="5.2917" height="5.2917" ry="0"/>
  </g>
 </g>
</svg>
