<svg width="116.59mm" height="31.881mm" version="1.1" viewBox="0 0 116.59 31.881" xmlns="http://www.w3.org/2000/svg">
 <g fill="#8ae234" stroke="#000" stroke-linecap="square" stroke-width=".2624">
  <rect x="79.506" y="15.963" width="5.2482" height="5.2482" ry="0"/>
  <rect x="84.752" y="15.963" width="5.2482" height="5.2482" ry="0"/>
  <rect x="89.999" y="15.963" width="5.2482" height="5.2482" ry="0"/>
  <rect x="79.506" y="21.211" width="5.2482" height="5.2482" ry="0"/>
  <rect x="79.506" y="26.458" width="5.2482" height="5.2482" ry="0"/>
  <rect x=".1312" y="5.3351" width="5.2482" height="5.2482" ry="0"/>
  <rect x="5.4229" y="10.627" width="5.2482" height="5.2482" ry="0"/>
  <rect x=".21893" y="21.124" width="5.2482" height="5.2482" ry="0"/>
  <rect x="15.964" y="5.3797" width="5.2482" height="5.2482" ry="0"/>
  <rect x="10.715" y="15.918" width="5.2482" height="5.2482" ry="0"/>
  <rect x="15.964" y="21.124" width="5.2482" height="5.2482" ry="0"/>
  <rect x="47.756" y="15.962" width="5.2482" height="5.2482" ry="0"/>
  <rect x="47.756" y="21.21" width="5.2482" height="5.2482" ry="0"/>
  <rect x="63.5" y="15.962" width="5.2482" height="5.2482" ry="0"/>
  <rect x="63.5" y="21.21" width="5.2482" height="5.2482" ry="0"/>
  <rect transform="scale(-1)" x="-63.5" y="-15.962" width="5.2482" height="5.2482" ry="0"/>
  <rect transform="scale(-1)" x="-58.253" y="-15.962" width="5.2482" height="5.2482" ry="0"/>
  <rect transform="scale(-1)" x="-63.5" y="-31.707" width="5.2482" height="5.2482" ry="0"/>
  <rect transform="scale(-1)" x="-58.253" y="-31.707" width="5.2482" height="5.2482" ry="0"/>
  <rect transform="scale(-1)" x="-73.997" y="-31.707" width="5.2482" height="5.2482" ry="0"/>
  <rect transform="scale(-1)" x="-42.421" y="-21.123" width="5.2482" height="5.2482" ry="0"/>
  <rect transform="scale(-1)" x="-31.794" y="-21.167" width="5.2482" height="5.2482" ry="0"/>
  <rect transform="scale(-1)" x="-37.086" y="-15.832" width="5.2482" height="5.2482" ry="0"/>
  <rect transform="scale(-1)" x="-37.129" y="-26.458" width="5.2482" height="5.2482" ry="0"/>
  <rect transform="scale(-1)" x="-37.086" y="-21.123" width="5.2482" height="5.2482" ry="0"/>
  <rect transform="scale(-1)" x="-37.129" y="-31.75" width="5.2482" height="5.2482" ry="0"/>
  <rect transform="scale(-1)" x="-116.46" y="-21.167" width="5.2482" height="5.2482" ry="0"/>
  <rect transform="scale(-1)" x="-105.96" y="-21.167" width="5.2482" height="5.2482" ry="0"/>
  <rect transform="scale(-1)" x="-111.21" y="-15.918" width="5.2482" height="5.2482" ry="0"/>
  <rect transform="scale(-1)" x="-111.21" y="-26.415" width="5.2482" height="5.2482" ry="0"/>
  <rect transform="scale(-1)" x="-111.21" y="-21.167" width="5.2482" height="5.2482" ry="0"/>
  <rect transform="scale(-1)" x="-111.21" y="-31.663" width="5.2482" height="5.2482" ry="0"/>
  <rect x="10.716" y=".1312" width="5.2482" height="5.2482" ry="0"/>
  <rect x="5.4674" y=".1312" width="5.2482" height="5.2482" ry="0"/>
  <rect x="5.4674" y="26.371" width="5.2482" height="5.2482" ry="0"/>
  <rect x="10.716" y="26.371" width="5.2482" height="5.2482" ry="0"/>
 </g>
</svg>
